<svg width="360" height="60" viewBox="0 0 360 60" fill="none" xmlns="http://www.w3.org/2000/svg">
<path d="M9.40762 11.1H18.3566L22.3466 39.657H22.4606L26.4506 11.1H35.3996V51H29.4716V20.79H29.3576L24.7976 51H19.5536L14.9936 20.79H14.8796V51H9.40762V11.1ZM40.0785 11.1H49.3695C52.5995 11.1 54.9555 11.86 56.4375 13.38C57.9195 14.862 58.6605 17.161 58.6605 20.277V22.728C58.6605 26.87 57.2925 29.492 54.5565 30.594V30.708C56.0765 31.164 57.1405 32.095 57.7485 33.501C58.3945 34.907 58.7175 36.788 58.7175 39.144V46.155C58.7175 47.295 58.7555 48.226 58.8315 48.948C58.9075 49.632 59.0975 50.316 59.4015 51H53.0175C52.7895 50.354 52.6375 49.746 52.5615 49.176C52.4855 48.606 52.4475 47.58 52.4475 46.098V38.802C52.4475 36.978 52.1435 35.705 51.5355 34.983C50.9655 34.261 49.9585 33.9 48.5145 33.9H46.3485V51H40.0785V11.1ZM48.6285 28.2C49.8825 28.2 50.8135 27.877 51.4215 27.231C52.0675 26.585 52.3905 25.502 52.3905 23.982V20.904C52.3905 19.46 52.1245 18.415 51.5925 17.769C51.0985 17.123 50.3005 16.8 49.1985 16.8H46.3485V28.2H48.6285ZM63.3461 44.958H69.3881V51H63.3461V44.958ZM83.2182 11.1H92.7942C95.9102 11.1 98.2472 11.936 99.8052 13.608C101.363 15.28 102.142 17.731 102.142 20.961V41.139C102.142 44.369 101.363 46.82 99.8052 48.492C98.2472 50.164 95.9102 51 92.7942 51H83.2182V11.1ZM92.6802 45.3C93.7062 45.3 94.4852 44.996 95.0172 44.388C95.5872 43.78 95.8722 42.792 95.8722 41.424V20.676C95.8722 19.308 95.5872 18.32 95.0172 17.712C94.4852 17.104 93.7062 16.8 92.6802 16.8H89.4882V45.3H92.6802ZM111.108 11.1H119.601L126.099 51H119.829L118.689 43.077V43.191H111.564L110.424 51H104.61L111.108 11.1ZM117.948 37.776L115.155 18.054H115.041L112.305 37.776H117.948ZM129.141 11.1H146.241V16.8H135.411V27.345H144.018V33.045H135.411V45.3H146.241V51H129.141V11.1ZM149.848 11.1H159.31C162.54 11.1 164.896 11.86 166.378 13.38C167.86 14.862 168.601 17.161 168.601 20.277V21.873C168.601 23.925 168.259 25.597 167.575 26.889C166.929 28.181 165.922 29.112 164.554 29.682V29.796C167.67 30.86 169.228 33.634 169.228 38.118V41.538C169.228 44.616 168.411 46.972 166.777 48.606C165.181 50.202 162.825 51 159.709 51H149.848V11.1ZM158.569 27.345C159.823 27.345 160.754 27.022 161.362 26.376C162.008 25.73 162.331 24.647 162.331 23.127V20.904C162.331 19.46 162.065 18.415 161.533 17.769C161.039 17.123 160.241 16.8 159.139 16.8H156.118V27.345H158.569ZM159.709 45.3C160.811 45.3 161.628 45.015 162.16 44.445C162.692 43.837 162.958 42.811 162.958 41.367V37.89C162.958 36.066 162.635 34.812 161.989 34.128C161.381 33.406 160.355 33.045 158.911 33.045H156.118V45.3H159.709ZM177.738 11.1H186.231L192.729 51H186.459L185.319 43.077V43.191H178.194L177.054 51H171.24L177.738 11.1ZM184.578 37.776L181.785 18.054H181.671L178.935 37.776H184.578ZM195.771 11.1H202.041V27.915L210.021 11.1H216.291L208.824 25.749L216.405 51H209.85L204.549 33.216L202.041 38.289V51H195.771V11.1ZM228.501 11.1H238.077C241.193 11.1 243.53 11.936 245.088 13.608C246.646 15.28 247.425 17.731 247.425 20.961V41.139C247.425 44.369 246.646 46.82 245.088 48.492C243.53 50.164 241.193 51 238.077 51H228.501V11.1ZM237.963 45.3C238.989 45.3 239.768 44.996 240.3 44.388C240.87 43.78 241.155 42.792 241.155 41.424V20.676C241.155 19.308 240.87 18.32 240.3 17.712C239.768 17.104 238.989 16.8 237.963 16.8H234.771V45.3H237.963ZM251.658 11.1H257.928V51H251.658V11.1ZM262.623 11.1H270.489L276.588 34.983H276.702V11.1H282.288V51H275.847L268.323 21.873H268.209V51H262.623V11.1ZM286.949 11.1H294.815L300.914 34.983H301.028V11.1H306.614V51H300.173L292.649 21.873H292.535V51H286.949V11.1ZM311.274 11.1H328.374V16.8H317.544V27.345H326.151V33.045H317.544V45.3H328.374V51H311.274V11.1ZM331.981 11.1H341.272C344.502 11.1 346.858 11.86 348.34 13.38C349.822 14.862 350.563 17.161 350.563 20.277V22.728C350.563 26.87 349.195 29.492 346.459 30.594V30.708C347.979 31.164 349.043 32.095 349.651 33.501C350.297 34.907 350.62 36.788 350.62 39.144V46.155C350.62 47.295 350.658 48.226 350.734 48.948C350.81 49.632 351 50.316 351.304 51H344.92C344.692 50.354 344.54 49.746 344.464 49.176C344.388 48.606 344.35 47.58 344.35 46.098V38.802C344.35 36.978 344.046 35.705 343.438 34.983C342.868 34.261 341.861 33.9 340.417 33.9H338.251V51H331.981V11.1ZM340.531 28.2C341.785 28.2 342.716 27.877 343.324 27.231C343.97 26.585 344.293 25.502 344.293 23.982V20.904C344.293 19.46 344.027 18.415 343.495 17.769C343.001 17.123 342.203 16.8 341.101 16.8H338.251V28.2H340.531Z" fill="black"/>
</svg>
