<svg width="211" height="34" viewBox="0 0 211 34" fill="none" xmlns="http://www.w3.org/2000/svg">
<path d="M48.734 8.65801H52.502L54.182 20.682H54.23L55.91 8.65801H59.678V25.458H57.182V12.738H57.134L55.214 25.458H53.006L51.086 12.738H51.038V25.458H48.734V8.65801ZM61.6481 8.65801H65.5601C66.9201 8.65801 67.9121 8.97801 68.5361 9.61801C69.1601 10.242 69.4721 11.21 69.4721 12.522V13.554C69.4721 15.298 68.8961 16.402 67.7441 16.866V16.914C68.3841 17.106 68.8321 17.498 69.0881 18.09C69.3601 18.682 69.4961 19.474 69.4961 20.466V23.418C69.4961 23.898 69.5121 24.29 69.5441 24.594C69.5761 24.882 69.6561 25.17 69.7841 25.458H67.0961C67.0001 25.186 66.9361 24.93 66.9041 24.69C66.8721 24.45 66.8561 24.018 66.8561 23.394V20.322C66.8561 19.554 66.7281 19.018 66.4721 18.714C66.2321 18.41 65.8081 18.258 65.2001 18.258H64.2881V25.458H61.6481V8.65801ZM65.2481 15.858C65.7761 15.858 66.1681 15.722 66.4241 15.45C66.6961 15.178 66.8321 14.722 66.8321 14.082V12.786C66.8321 12.178 66.7201 11.738 66.4961 11.466C66.2881 11.194 65.9521 11.058 65.4881 11.058H64.2881V15.858H65.2481ZM71.4449 22.914H73.9889V25.458H71.4449V22.914ZM79.8121 8.65801H83.8441C85.1561 8.65801 86.1401 9.01001 86.7961 9.71401C87.4521 10.418 87.7801 11.45 87.7801 12.81V21.306C87.7801 22.666 87.4521 23.698 86.7961 24.402C86.1401 25.106 85.1561 25.458 83.8441 25.458H79.8121V8.65801ZM83.7961 23.058C84.2281 23.058 84.5561 22.93 84.7801 22.674C85.0201 22.418 85.1401 22.002 85.1401 21.426V12.69C85.1401 12.114 85.0201 11.698 84.7801 11.442C84.5561 11.186 84.2281 11.058 83.7961 11.058H82.4521V23.058H83.7961ZM91.5553 8.65801H95.1313L97.8673 25.458H95.2273L94.7473 22.122V22.17H91.7473L91.2673 25.458H88.8193L91.5553 8.65801ZM94.4353 19.89L93.2593 11.586H93.2113L92.0592 19.89H94.4353ZM99.1481 8.65801H106.348V11.058H101.788V15.498H105.412V17.898H101.788V23.058H106.348V25.458H99.1481V8.65801ZM107.867 8.65801H111.851C113.211 8.65801 114.203 8.97801 114.827 9.61801C115.451 10.242 115.763 11.21 115.763 12.522V13.194C115.763 14.058 115.619 14.762 115.331 15.306C115.059 15.85 114.635 16.242 114.059 16.482V16.53C115.371 16.978 116.027 18.146 116.027 20.034V21.474C116.027 22.77 115.683 23.762 114.995 24.45C114.323 25.122 113.331 25.458 112.019 25.458H107.867V8.65801ZM111.539 15.498C112.067 15.498 112.459 15.362 112.715 15.09C112.987 14.818 113.123 14.362 113.123 13.722V12.786C113.123 12.178 113.011 11.738 112.787 11.466C112.579 11.194 112.243 11.058 111.779 11.058H110.507V15.498H111.539ZM112.019 23.058C112.483 23.058 112.827 22.938 113.051 22.698C113.275 22.442 113.387 22.01 113.387 21.402V19.938C113.387 19.17 113.251 18.642 112.979 18.354C112.723 18.05 112.291 17.898 111.683 17.898H110.507V23.058H112.019ZM119.61 8.65801H123.186L125.922 25.458H123.282L122.802 22.122V22.17H119.802L119.322 25.458H116.874L119.61 8.65801ZM122.49 19.89L121.314 11.586H121.266L120.114 19.89H122.49ZM127.203 8.65801H129.843V15.738L133.203 8.65801H135.843L132.699 14.826L135.891 25.458H133.131L130.899 17.97L129.843 20.106V25.458H127.203V8.65801ZM140.984 8.65801H145.016C146.328 8.65801 147.312 9.01001 147.968 9.71401C148.624 10.418 148.952 11.45 148.952 12.81V21.306C148.952 22.666 148.624 23.698 147.968 24.402C147.312 25.106 146.328 25.458 145.016 25.458H140.984V8.65801ZM144.968 23.058C145.4 23.058 145.728 22.93 145.952 22.674C146.192 22.418 146.312 22.002 146.312 21.426V12.69C146.312 12.114 146.192 11.698 145.952 11.442C145.728 11.186 145.4 11.058 144.968 11.058H143.624V23.058H144.968ZM150.734 8.65801H153.374V25.458H150.734V8.65801ZM155.351 8.65801H158.663L161.231 18.714H161.279V8.65801H163.631V25.458H160.919L157.751 13.194H157.703V25.458H155.351V8.65801ZM165.593 8.65801H168.905L171.473 18.714H171.521V8.65801H173.873V25.458H171.161L167.993 13.194H167.945V25.458H165.593V8.65801ZM175.836 8.65801H183.036V11.058H178.476V15.498H182.1V17.898H178.476V23.058H183.036V25.458H175.836V8.65801ZM184.554 8.65801H188.466C189.826 8.65801 190.818 8.97801 191.442 9.61801C192.066 10.242 192.378 11.21 192.378 12.522V13.554C192.378 15.298 191.802 16.402 190.65 16.866V16.914C191.29 17.106 191.738 17.498 191.994 18.09C192.266 18.682 192.402 19.474 192.402 20.466V23.418C192.402 23.898 192.418 24.29 192.45 24.594C192.482 24.882 192.562 25.17 192.69 25.458H190.002C189.906 25.186 189.842 24.93 189.81 24.69C189.778 24.45 189.762 24.018 189.762 23.394V20.322C189.762 19.554 189.634 19.018 189.378 18.714C189.138 18.41 188.714 18.258 188.106 18.258H187.194V25.458H184.554V8.65801ZM188.154 15.858C188.682 15.858 189.074 15.722 189.33 15.45C189.602 15.178 189.738 14.722 189.738 14.082V12.786C189.738 12.178 189.626 11.738 189.402 11.466C189.194 11.194 188.858 11.058 188.394 11.058H187.194V15.858H188.154Z" fill="white"/>
<path d="M20.05 27.0875L18.958 26.975C17.97 26.8875 17.125 26.25 16.8 25.3375C16.111 22.8875 16.111 20.2875 16.8 17.8375C19.816 17.25 22 14.7125 22 11.75C22 9.25 19.4 3 19.4 3H11.6C11.6 3 9 9.25 9 11.75C9 14.725 11.171 17.275 14.2 17.875C14.889 20.325 14.889 22.925 14.2 25.375C13.888 26.275 13.056 26.9125 12.081 27.0125L10.95 27.125C10.95 27.125 10.3 27.1 10.3 28H20.7C20.7 27.1 20.05 27.0875 20.05 27.0875ZM12.172 9.25L13.472 5.5H17.528L18.828 9.25H12.172Z" fill="white"/>
</svg>
