<svg width="360" height="68" viewBox="0 0 360 68" fill="none" xmlns="http://www.w3.org/2000/svg">
<path d="M49.006 11.674V14.748C49.006 20.896 45.455 27.309 37.293 29.959L40.897 35.418C50.331 32.397 54.836 24.023 54.836 14.748V11.674H49.006ZM50.437 11.674V14.748C50.437 23.599 54.889 31.655 64.111 34.57L67.715 29.111C59.712 26.567 56.214 20.578 56.214 14.748V11.674H50.437ZM70.789 6.639V36.213H77.891V6.639H70.789ZM44.395 38.386V44.004H70.789V55.717H77.891V38.386H44.395ZM39.148 9.501V15.066H65.86V9.501H39.148ZM95.9599 31.814V42.573H103.009V31.814H95.9599ZM117.478 6.639V43.792H124.527V6.639H117.478ZM89.1759 49.251V54.869H125.587V49.251H89.1759ZM89.1759 40.294V50.735H96.2249V40.294H89.1759ZM83.8759 33.934C92.7269 33.934 104.228 33.669 114.669 31.92L114.245 26.885C103.963 28.21 91.9849 28.316 83.0279 28.316L83.8759 33.934ZM108.203 35.153V39.976H119.015V35.153H108.203ZM98.8219 8.335C91.6139 8.335 86.5789 11.886 86.5789 17.08C86.5789 22.327 91.6139 25.825 98.8219 25.825C105.977 25.825 111.012 22.327 111.012 17.08C111.012 11.886 105.977 8.335 98.8219 8.335ZM98.8219 13.476C102.055 13.476 104.334 14.695 104.334 17.08C104.334 19.465 102.055 20.684 98.8219 20.684C95.5359 20.684 93.2569 19.465 93.2569 17.08C93.2569 14.695 95.5359 13.476 98.8219 13.476ZM152.244 36.478V44.428H159.293V36.478H152.244ZM173.709 6.639V55.717H180.758V6.639H173.709ZM140.902 47.555C149.594 47.555 160.989 47.502 171.642 45.541L171.165 40.453C160.83 41.831 148.958 41.831 140.054 41.884L140.902 47.555ZM141.008 12.045V17.557H170.529V12.045H141.008ZM155.742 19.518C148.587 19.518 143.552 23.228 143.552 28.687C143.552 34.199 148.587 37.909 155.742 37.909C163.003 37.909 168.038 34.199 168.038 28.687C168.038 23.228 163.003 19.518 155.742 19.518ZM155.742 24.818C159.028 24.818 161.307 26.196 161.307 28.687C161.307 31.231 159.028 32.609 155.742 32.609C152.562 32.609 150.283 31.231 150.283 28.687C150.283 26.196 152.562 24.818 155.742 24.818ZM152.244 6.851V15.225H159.293V6.851H152.244ZM198.668 31.814V42.573H205.717V31.814H198.668ZM220.186 6.639V43.792H227.235V6.639H220.186ZM191.884 49.251V54.869H228.295V49.251H191.884ZM191.884 40.294V50.735H198.933V40.294H191.884ZM186.584 33.934C195.435 33.934 206.936 33.669 217.377 31.92L216.953 26.885C206.671 28.21 194.693 28.316 185.736 28.316L186.584 33.934ZM210.911 35.153V39.976H221.723V35.153H210.911ZM201.53 8.335C194.322 8.335 189.287 11.886 189.287 17.08C189.287 22.327 194.322 25.825 201.53 25.825C208.685 25.825 213.72 22.327 213.72 17.08C213.72 11.886 208.685 8.335 201.53 8.335ZM201.53 13.476C204.763 13.476 207.042 14.695 207.042 17.08C207.042 19.465 204.763 20.684 201.53 20.684C198.244 20.684 195.965 19.465 195.965 17.08C195.965 14.695 198.244 13.476 201.53 13.476ZM263.377 6.586V55.664H270.479V6.586H263.377ZM268.624 25.348V31.125H277.263V25.348H268.624ZM250.498 11.674V12.893C250.498 26.196 244.403 35.206 231.524 41.884L235.446 47.237C251.77 39.022 257.388 26.408 257.388 11.674H250.498ZM234.227 11.674V17.345H254.102V11.674H234.227ZM311.815 6.639V33.033H318.917V6.639H311.815ZM286.269 35.153V55.187H318.917V35.153H311.921V39.711H293.212V35.153H286.269ZM293.212 45.117H311.921V49.569H293.212V45.117ZM292.205 8.653C284.573 8.653 278.849 13.476 278.849 20.26C278.849 27.044 284.573 31.867 292.205 31.867C299.837 31.867 305.508 27.044 305.508 20.26C305.508 13.476 299.837 8.653 292.205 8.653ZM292.205 14.483C295.915 14.483 298.618 16.656 298.618 20.26C298.618 23.917 295.915 26.037 292.205 26.037C288.442 26.037 285.739 23.917 285.739 20.26C285.739 16.656 288.442 14.483 292.205 14.483Z" fill="black"/>
</svg>
