<svg width="360" height="68" viewBox="0 0 360 68" fill="none" xmlns="http://www.w3.org/2000/svg">
<path d="M41.639 10.773V16.444H72.75V10.773H41.639ZM37.134 44.11V49.834H81.495V44.11H37.134ZM52.822 27.256V46.919H59.871V27.256H52.822ZM70.206 10.773V15.49C70.206 21.373 70.206 28.475 68.245 38.227L75.294 39.022C77.255 28.528 77.255 21.638 77.255 15.49V10.773H70.206ZM118.326 6.639V35.365H125.004V6.639H118.326ZM112.337 17.928V23.652H120.181V17.928H112.337ZM107.62 7.54V35.206H114.192V7.54H107.62ZM90.9779 37.379V42.997H118.008V55.717H125.004V37.379H90.9779ZM97.3909 10.031V12.681C97.3909 20.737 93.0979 26.673 82.6569 30.542L85.9429 35.683C98.6629 30.701 104.44 22.433 104.44 10.031H97.3909ZM84.9889 10.031V15.649H99.6699V10.031H84.9889ZM152.244 36.478V44.428H159.293V36.478H152.244ZM173.709 6.639V55.717H180.758V6.639H173.709ZM140.902 47.555C149.594 47.555 160.989 47.502 171.642 45.541L171.165 40.453C160.83 41.831 148.958 41.831 140.054 41.884L140.902 47.555ZM141.008 12.045V17.557H170.529V12.045H141.008ZM155.742 19.518C148.587 19.518 143.552 23.228 143.552 28.687C143.552 34.199 148.587 37.909 155.742 37.909C163.003 37.909 168.038 34.199 168.038 28.687C168.038 23.228 163.003 19.518 155.742 19.518ZM155.742 24.818C159.028 24.818 161.307 26.196 161.307 28.687C161.307 31.231 159.028 32.609 155.742 32.609C152.562 32.609 150.283 31.231 150.283 28.687C150.283 26.196 152.562 24.818 155.742 24.818ZM152.244 6.851V15.225H159.293V6.851H152.244ZM198.668 31.814V42.573H205.717V31.814H198.668ZM220.186 6.639V43.792H227.235V6.639H220.186ZM191.884 49.251V54.869H228.295V49.251H191.884ZM191.884 40.294V50.735H198.933V40.294H191.884ZM186.584 33.934C195.435 33.934 206.936 33.669 217.377 31.92L216.953 26.885C206.671 28.21 194.693 28.316 185.736 28.316L186.584 33.934ZM210.911 35.153V39.976H221.723V35.153H210.911ZM201.53 8.335C194.322 8.335 189.287 11.886 189.287 17.08C189.287 22.327 194.322 25.825 201.53 25.825C208.685 25.825 213.72 22.327 213.72 17.08C213.72 11.886 208.685 8.335 201.53 8.335ZM201.53 13.476C204.763 13.476 207.042 14.695 207.042 17.08C207.042 19.465 204.763 20.684 201.53 20.684C198.244 20.684 195.965 19.465 195.965 17.08C195.965 14.695 198.244 13.476 201.53 13.476ZM263.377 6.586V55.664H270.479V6.586H263.377ZM268.624 25.348V31.125H277.263V25.348H268.624ZM250.498 11.674V12.893C250.498 26.196 244.403 35.206 231.524 41.884L235.446 47.237C251.77 39.022 257.388 26.408 257.388 11.674H250.498ZM234.227 11.674V17.345H254.102V11.674H234.227ZM311.815 6.639V33.033H318.917V6.639H311.815ZM286.269 35.153V55.187H318.917V35.153H311.921V39.711H293.212V35.153H286.269ZM293.212 45.117H311.921V49.569H293.212V45.117ZM292.205 8.653C284.573 8.653 278.849 13.476 278.849 20.26C278.849 27.044 284.573 31.867 292.205 31.867C299.837 31.867 305.508 27.044 305.508 20.26C305.508 13.476 299.837 8.653 292.205 8.653ZM292.205 14.483C295.915 14.483 298.618 16.656 298.618 20.26C298.618 23.917 295.915 26.037 292.205 26.037C288.442 26.037 285.739 23.917 285.739 20.26C285.739 16.656 288.442 14.483 292.205 14.483Z" fill="black"/>
</svg>
